<svg width="409" height="513" viewBox="0 0 409 513" fill="none" xmlns="http://www.w3.org/2000/svg">
<g filter="url(#filter0_d_1_93)">
<path d="M50.8439 399.227L45.0891 428.57C41.7413 445.64 56.4172 460.826 73.5918 458.064L103.115 453.316C123.062 450.107 131.162 425.788 117.122 411.26L93.3538 386.665C79.3137 372.137 54.7322 379.4 50.8439 399.227Z" fill="url(#paint0_linear_1_93)" stroke="white" stroke-width="10"/>
<path d="M346.329 408.227L352.084 437.57C355.432 454.64 340.756 469.826 323.581 467.064L294.058 462.316C274.111 459.107 266.011 434.788 280.051 420.26L303.819 395.665C317.859 381.137 342.441 388.4 346.329 408.227Z" fill="url(#paint1_linear_1_93)" stroke="white" stroke-width="10"/>
<path d="M39.3633 145H35.7826L34.6296 148.39L39.3633 150C34.6296 148.39 34.6289 148.392 34.6282 148.394L34.6265 148.399L34.6226 148.411L34.6121 148.442C34.6039 148.467 34.5935 148.498 34.5808 148.537C34.5555 148.615 34.5213 148.721 34.4789 148.858C34.394 149.13 34.2759 149.521 34.1294 150.036C33.8364 151.065 33.4295 152.591 32.9459 154.657C31.9787 158.79 30.7045 165.087 29.4213 173.905C26.8552 191.54 24.2513 219.273 24.0001 259.969C23.5591 331.422 30.8595 362.926 32.7883 369.982C33.0992 371.119 33.4772 372.188 33.9648 373.281C39.1334 384.867 78.191 462 198.5 462C311.571 462 352.903 393.841 361.733 376.037C362.999 373.485 364.324 370.668 365.293 367.62C368.393 357.868 374.139 330.2 372.999 259.919C372.247 213.533 369.65 185.797 367.205 169.568C365.982 161.449 364.792 156.168 363.873 152.847C363.413 151.184 363.019 150.001 362.717 149.191C362.567 148.785 362.438 148.47 362.336 148.234C362.285 148.116 362.24 148.017 362.202 147.936C362.183 147.895 362.166 147.859 362.151 147.827L362.128 147.782L362.118 147.762L362.114 147.752C362.111 147.748 362.109 147.743 357.647 150L362.109 147.743L360.721 145H357.647H39.3633Z" fill="url(#paint2_radial_1_93)" stroke="white" stroke-width="10"/>
<path d="M198.5 224C243.103 224 283.727 215.623 313.388 201.862C342.633 188.294 363 168.547 363 145C363 134.488 361.918 123.971 357.708 114.215C353.448 104.342 346.136 95.5953 334.282 88.3999C310.947 74.2362 269.837 66 198.5 66C127.163 66 86.053 74.2362 62.7181 88.3999C50.8636 95.5953 43.5524 104.342 39.292 114.215C35.082 123.971 34 134.488 34 145C34 168.547 54.3675 188.294 83.6122 201.862C113.273 215.623 153.897 224 198.5 224Z" fill="url(#paint3_linear_1_93)" stroke="white" stroke-width="10"/>
<path d="M198.5 202C240.928 202 279.585 193.611 307.821 179.819C335.724 166.189 355 146.41 355 123C355 99.5897 335.724 79.8106 307.821 66.1814C279.585 52.3894 240.928 44 198.5 44C156.072 44 117.415 52.3894 89.1789 66.1814C61.2759 79.8106 42 99.5897 42 123C42 146.41 61.2759 166.189 89.1789 179.819C117.415 193.611 156.072 202 198.5 202Z" fill="url(#paint4_radial_1_93)" stroke="white" stroke-width="10"/>
<path d="M157.47 86.9147C157.49 86.7435 157.504 86.5902 157.513 86.4572C160.707 62.8646 178.111 45.8421 198 45.8421C217.922 45.8421 235.35 62.921 238.503 86.5743C238.507 86.613 238.512 86.6546 238.518 86.699C238.536 86.8464 238.562 87.0253 238.6 87.2311C238.676 87.6415 238.8 88.1673 239.003 88.7696C239.409 89.9746 240.144 91.5166 241.464 93.033C244.242 96.2233 248.881 98.5 256 98.5C263.129 98.5 267.798 96.2232 270.655 93.1616C272.022 91.6976 272.828 90.2048 273.299 89.0288C273.534 88.4412 273.687 87.9269 273.787 87.5241C273.837 87.3221 273.874 87.1465 273.901 87.0017C273.914 86.9292 273.926 86.8643 273.935 86.8073C273.939 86.7789 273.943 86.7524 273.947 86.7279L273.952 86.6928L273.954 86.6764L273.955 86.6685C273.956 86.6647 273.956 86.6608 269 86L273.956 86.6608L274 86.3319V86C274 47.5009 246.905 15 212 15H185C150.125 15 123.046 47.4454 123 85.9014C122.999 85.9355 122.998 85.9717 122.998 86.0099C122.995 86.1635 122.997 86.3503 123.008 86.5658C123.029 86.9949 123.085 87.5497 123.218 88.1895C123.484 89.47 124.069 91.1392 125.33 92.7873C128.001 96.2799 132.729 98.5 140 98.5C147.295 98.5 152.029 96.2736 154.8 92.9553C156.119 91.3773 156.801 89.7687 157.15 88.513C157.325 87.8864 157.419 87.3403 157.47 86.9147Z" fill="url(#paint5_radial_1_93)" stroke="white" stroke-width="10"/>
<path d="M72.7978 453.127C59.0581 455.337 47.3174 443.188 49.9957 429.532L55.7504 400.189C58.8611 384.328 78.5263 378.517 89.7583 390.14L113.526 414.734C124.758 426.357 118.279 445.812 102.321 448.379L72.7978 453.127Z" fill="url(#paint6_linear_1_93)"/>
<path d="M324.375 462.127C338.115 464.337 349.856 452.188 347.177 438.532L341.423 409.189C338.312 393.328 318.647 387.517 307.415 399.14L283.647 423.734C272.415 435.357 278.894 454.812 294.852 457.379L324.375 462.127Z" fill="url(#paint7_linear_1_93)"/>
<path d="M39.3633 150H357.647C357.647 150 366.5 167.5 368 260C369.137 330.101 363.382 357.127 360.528 366.105C359.68 368.773 358.497 371.308 357.254 373.816C348.931 390.596 309.017 457 198.5 457C80.9473 457 43.2724 381.872 38.531 371.244C38.1508 370.392 37.8574 369.564 37.6114 368.664C35.8312 362.151 28.561 331.12 29 260C29.5 179 39.3633 150 39.3633 150Z" fill="url(#paint8_radial_1_93)"/>
<path d="M367.842 251.732C367.902 254.419 367.954 257.175 368 260C369.137 330.101 363.382 357.127 360.528 366.105C359.68 368.773 358.497 371.308 357.254 373.816C348.931 390.596 309.017 457 198.5 457C80.9473 457 43.2724 381.872 38.531 371.244C38.1508 370.392 37.8574 369.564 37.6114 368.664C35.8312 362.151 28.561 331.12 29 260C29.0207 256.649 29.0574 253.387 29.1088 250.212C35.4226 266.905 71.1856 343 198.5 343C322.289 343 359.956 271.061 367.842 251.732Z" fill="url(#paint9_radial_1_93)"/>
<path d="M358 145C358 185.869 286.589 219 198.5 219C110.411 219 39 185.869 39 145C39 104.131 56 71 198.5 71C341 71.0001 358 104.131 358 145Z" fill="url(#paint10_linear_1_93)"/>
<ellipse cx="198.5" cy="123" rx="151.5" ry="74" fill="url(#paint11_radial_1_93)"/>
<path d="M185 20C153.52 20 128 49.5492 128 86C128 86 127.471 93.5 140 93.5C152.529 93.5 152.529 86 152.529 86C155.901 60.4303 174.975 40.8421 198 40.8421C221.025 40.8421 240.099 60.4303 243.471 86C243.471 86 244 93.5 256 93.5C268 93.5 269 86 269 86C269 49.5492 243.48 20 212 20H185Z" fill="url(#paint12_radial_1_93)"/>
<path d="M163.814 186.64C164.494 181.689 168.724 178 173.721 178H224.946C229.871 178 234.062 181.585 234.826 186.45L236.944 199.954C237.303 202.247 236.821 204.615 235.004 206.058C230.953 209.274 221.108 214.34 199.5 213.982C178.294 213.631 168.418 209.002 164.228 206.014C162.268 204.616 161.68 202.187 162.008 199.801L163.814 186.64Z" fill="#F0B176"/>
<path d="M165.773 173.586C166.477 168.659 170.696 165 175.673 165H223.327C228.304 165 232.523 168.659 233.227 173.586L236.515 196.603C236.829 198.805 236.365 201.071 234.616 202.445C230.709 205.514 221.099 210.343 199.5 210C178.46 209.666 168.797 205.317 164.699 202.465C162.749 201.108 162.184 198.709 162.52 196.357L165.773 173.586Z" fill="url(#paint13_linear_1_93)"/>
<path d="M153 401.405C153 393.277 163.011 387.281 170.86 389.393C178.122 391.347 187.642 392.967 199.5 393.134C210.958 393.296 220.233 391.867 227.396 389.983C235.428 387.871 246 394.048 246 402.353V418.963C246 421.538 244.991 424.01 242.828 425.408C237.389 428.921 224.384 435 199.5 435C174.616 435 161.611 428.921 156.172 425.408C154.009 424.01 153 421.538 153 418.963V401.405Z" fill="url(#paint14_linear_1_93)"/>
<path d="M153 414.95C153 407.572 161.028 402.037 168.256 403.517C175.791 405.06 186.167 406.435 199.5 406.563C212.543 406.688 222.757 405.413 230.248 403.876C237.613 402.365 246 408.017 246 415.535V421.669C246 424.908 244.384 427.904 241.37 429.09C235.224 431.508 222.386 435 199.5 435C176.614 435 163.776 431.508 157.63 429.09C154.616 427.904 153 424.908 153 421.669V414.95Z" fill="url(#paint15_radial_1_93)"/>
<path d="M143 396.125C143 407.24 137.851 408.775 131.5 408.775C125.149 408.775 120 407.24 120 396.125C120 385.01 125.149 376 131.5 376C137.851 376 143 385.01 143 396.125Z" fill="url(#paint16_linear_1_93)"/>
<path d="M125.017 385.306C125.017 385.306 124.517 379.806 129.017 378.306C133.517 376.806 135.017 381.306 135.017 381.306C135.017 381.306 135.517 383.806 134.017 386.306C132.517 388.806 130.517 389.306 128.017 389.806C125.517 390.306 125.017 385.306 125.017 385.306Z" fill="url(#paint17_radial_1_93)"/>
<g filter="url(#filter1_d_1_93)">
<ellipse cx="131.5" cy="402" rx="8.5" ry="5" fill="#D96B6B"/>
</g>
<path d="M279 396.125C279 407.24 273.851 408.775 267.5 408.775C261.149 408.775 256 407.24 256 396.125C256 385.01 261.149 376 267.5 376C273.851 376 279 385.01 279 396.125Z" fill="url(#paint18_linear_1_93)"/>
<path d="M261.017 385.306C261.017 385.306 260.517 379.806 265.017 378.306C269.517 376.806 271.017 381.306 271.017 381.306C271.017 381.306 271.517 383.806 270.017 386.306C268.517 388.806 266.517 389.306 264.017 389.806C261.517 390.306 261.017 385.306 261.017 385.306Z" fill="url(#paint19_radial_1_93)"/>
<g filter="url(#filter2_d_1_93)">
<ellipse cx="267.5" cy="402" rx="8.5" ry="5" fill="#D96B6B"/>
</g>
</g>
<defs>
<filter id="filter0_d_1_93" x="8.98096" y="0" width="399.166" height="502.392" filterUnits="userSpaceOnUse" color-interpolation-filters="sRGB">
<feFlood flood-opacity="0" result="BackgroundImageFix"/>
<feColorMatrix in="SourceAlpha" type="matrix" values="0 0 0 0 0 0 0 0 0 0 0 0 0 0 0 0 0 0 127 0" result="hardAlpha"/>
<feOffset dx="10" dy="10"/>
<feGaussianBlur stdDeviation="10"/>
<feComposite in2="hardAlpha" operator="out"/>
<feColorMatrix type="matrix" values="0 0 0 0 0 0 0 0 0 0 0 0 0 0 0 0 0 0 0.25 0"/>
<feBlend mode="normal" in2="BackgroundImageFix" result="effect1_dropShadow_1_93"/>
<feBlend mode="normal" in="SourceGraphic" in2="effect1_dropShadow_1_93" result="shape"/>
</filter>
<filter id="filter1_d_1_93" x="113" y="387" width="37" height="30" filterUnits="userSpaceOnUse" color-interpolation-filters="sRGB">
<feFlood flood-opacity="0" result="BackgroundImageFix"/>
<feColorMatrix in="SourceAlpha" type="matrix" values="0 0 0 0 0 0 0 0 0 0 0 0 0 0 0 0 0 0 127 0" result="hardAlpha"/>
<feOffset/>
<feGaussianBlur stdDeviation="5"/>
<feComposite in2="hardAlpha" operator="out"/>
<feColorMatrix type="matrix" values="0 0 0 0 0.85098 0 0 0 0 0.419608 0 0 0 0 0.419608 0 0 0 1 0"/>
<feBlend mode="normal" in2="BackgroundImageFix" result="effect1_dropShadow_1_93"/>
<feBlend mode="normal" in="SourceGraphic" in2="effect1_dropShadow_1_93" result="shape"/>
</filter>
<filter id="filter2_d_1_93" x="249" y="387" width="37" height="30" filterUnits="userSpaceOnUse" color-interpolation-filters="sRGB">
<feFlood flood-opacity="0" result="BackgroundImageFix"/>
<feColorMatrix in="SourceAlpha" type="matrix" values="0 0 0 0 0 0 0 0 0 0 0 0 0 0 0 0 0 0 127 0" result="hardAlpha"/>
<feOffset/>
<feGaussianBlur stdDeviation="5"/>
<feComposite in2="hardAlpha" operator="out"/>
<feColorMatrix type="matrix" values="0 0 0 0 0.85098 0 0 0 0 0.419608 0 0 0 0 0.419608 0 0 0 1 0"/>
<feBlend mode="normal" in2="BackgroundImageFix" result="effect1_dropShadow_1_93"/>
<feBlend mode="normal" in="SourceGraphic" in2="effect1_dropShadow_1_93" result="shape"/>
</filter>
<linearGradient id="paint0_linear_1_93" x1="44.4748" y1="457.683" x2="120.698" y2="384.022" gradientUnits="userSpaceOnUse">
<stop stop-color="#D96B6B"/>
<stop offset="1" stop-color="#AA3E3E"/>
</linearGradient>
<linearGradient id="paint1_linear_1_93" x1="352.698" y1="466.683" x2="276.475" y2="393.022" gradientUnits="userSpaceOnUse">
<stop stop-color="#E67A7A"/>
<stop offset="1" stop-color="#9E3B3B"/>
</linearGradient>
<radialGradient id="paint2_radial_1_93" cx="0" cy="0" r="1" gradientUnits="userSpaceOnUse" gradientTransform="translate(88 269.5) rotate(1.69053) scale(288.125 318.314)">
<stop stop-color="#F8E5B6"/>
<stop offset="1" stop-color="#F0B176"/>
</radialGradient>
<linearGradient id="paint3_linear_1_93" x1="43" y1="138" x2="365.5" y2="145" gradientUnits="userSpaceOnUse">
<stop stop-color="#D96B6B"/>
<stop offset="1" stop-color="#C66A6A"/>
</linearGradient>
<radialGradient id="paint4_radial_1_93" cx="0" cy="0" r="1" gradientUnits="userSpaceOnUse" gradientTransform="translate(198 85) rotate(89.7442) scale(112.001 229.3)">
<stop stop-color="#F8AAAA"/>
<stop offset="1" stop-color="#F18585"/>
</radialGradient>
<radialGradient id="paint5_radial_1_93" cx="0" cy="0" r="1" gradientUnits="userSpaceOnUse" gradientTransform="translate(198.498 56.75) rotate(90) scale(36.75 70.5016)">
<stop stop-color="#9B5E5E"/>
<stop offset="1" stop-color="#EA7B7B"/>
</radialGradient>
<linearGradient id="paint6_linear_1_93" x1="44.4748" y1="457.683" x2="120.698" y2="384.022" gradientUnits="userSpaceOnUse">
<stop stop-color="#D96B6B"/>
<stop offset="1" stop-color="#AA3E3E"/>
</linearGradient>
<linearGradient id="paint7_linear_1_93" x1="352.698" y1="466.683" x2="276.475" y2="393.022" gradientUnits="userSpaceOnUse">
<stop stop-color="#E67A7A"/>
<stop offset="1" stop-color="#9E3B3B"/>
</linearGradient>
<radialGradient id="paint8_radial_1_93" cx="0" cy="0" r="1" gradientUnits="userSpaceOnUse" gradientTransform="translate(88 269.5) rotate(1.69053) scale(288.125 318.314)">
<stop stop-color="#F8E5B6"/>
<stop offset="1" stop-color="#F0B176"/>
</radialGradient>
<radialGradient id="paint9_radial_1_93" cx="0" cy="0" r="1" gradientUnits="userSpaceOnUse" gradientTransform="translate(102.5 325.5) rotate(10.6673) scale(332.242 544.929)">
<stop offset="0.3125" stop-color="#F29292"/>
<stop offset="1" stop-color="#B45454"/>
</radialGradient>
<linearGradient id="paint10_linear_1_93" x1="43" y1="138" x2="365.5" y2="145" gradientUnits="userSpaceOnUse">
<stop stop-color="#D96B6B"/>
<stop offset="1" stop-color="#C66A6A"/>
</linearGradient>
<radialGradient id="paint11_radial_1_93" cx="0" cy="0" r="1" gradientUnits="userSpaceOnUse" gradientTransform="translate(198 85) rotate(89.7442) scale(112.001 229.3)">
<stop stop-color="#F8AAAA"/>
<stop offset="1" stop-color="#F18585"/>
</radialGradient>
<radialGradient id="paint12_radial_1_93" cx="0" cy="0" r="1" gradientUnits="userSpaceOnUse" gradientTransform="translate(198.498 56.75) rotate(90) scale(36.75 70.5016)">
<stop stop-color="#9B5E5E"/>
<stop offset="1" stop-color="#EA7B7B"/>
</radialGradient>
<linearGradient id="paint13_linear_1_93" x1="199.5" y1="165" x2="199.5" y2="210.017" gradientUnits="userSpaceOnUse">
<stop stop-color="#F8E5B6"/>
<stop offset="1" stop-color="#F3C893"/>
</linearGradient>
<linearGradient id="paint14_linear_1_93" x1="199.5" y1="382" x2="199.5" y2="435" gradientUnits="userSpaceOnUse">
<stop stop-color="#C65454"/>
<stop offset="1" stop-color="#D96B6B"/>
</linearGradient>
<radialGradient id="paint15_radial_1_93" cx="0" cy="0" r="1" gradientUnits="userSpaceOnUse" gradientTransform="translate(199 430.5) rotate(-90) scale(31.5 81.375)">
<stop stop-color="#B54D4D"/>
<stop offset="1" stop-color="#933232"/>
</radialGradient>
<linearGradient id="paint16_linear_1_93" x1="131.5" y1="376" x2="131.5" y2="408.775" gradientUnits="userSpaceOnUse">
<stop offset="0.00520833" stop-color="#4B1B1B"/>
<stop offset="1" stop-color="#B54D4D"/>
</linearGradient>
<radialGradient id="paint17_radial_1_93" cx="0" cy="0" r="1" gradientUnits="userSpaceOnUse" gradientTransform="translate(130.048 383.921) rotate(90) scale(5.92064 5.04826)">
<stop stop-color="#FFD0D0"/>
<stop offset="1" stop-color="#E79D9D"/>
</radialGradient>
<linearGradient id="paint18_linear_1_93" x1="267.5" y1="376" x2="267.5" y2="408.775" gradientUnits="userSpaceOnUse">
<stop offset="0.00520833" stop-color="#4B1B1B"/>
<stop offset="1" stop-color="#B54D4D"/>
</linearGradient>
<radialGradient id="paint19_radial_1_93" cx="0" cy="0" r="1" gradientUnits="userSpaceOnUse" gradientTransform="translate(266.048 383.921) rotate(90) scale(5.92064 5.04826)">
<stop stop-color="#FFD0D0"/>
<stop offset="1" stop-color="#E79D9D"/>
</radialGradient>
</defs>
</svg>
