<svg width="767" height="536" viewBox="0 0 767 536" fill="none" xmlns="http://www.w3.org/2000/svg">
<g filter="url(#filter0_d_1_92)">
<path d="M522.763 479.191C513.855 475.02 513.809 466.563 514.037 465.301C514.265 464.039 548.629 413.622 548.629 413.622C548.629 413.622 563.966 390.911 568.619 378.09C573.272 365.268 569.701 342.243 572.157 331.137C574.612 320.031 581.55 307.234 587.803 298.505C594.057 289.776 598.82 281.8 609.527 277.263C620.233 272.725 629.926 274.296 632.93 275.333C635.933 276.37 651.68 286.225 653.723 288.347C655.767 290.469 664.269 298.88 663.428 310.997C662.588 323.114 660.837 330.166 655.231 340.705C649.624 351.244 644.289 357.738 631.307 368.156C618.325 378.574 600.12 384.319 591.431 392.367C582.742 400.414 567.807 425.625 567.807 425.625C567.807 425.625 539.981 478.167 538.819 479.125C537.657 480.084 531.672 483.362 522.763 479.191Z" fill="url(#paint0_linear_1_92)"/>
<path d="M509.117 464.412L514.037 465.301L509.117 464.412C508.827 466.019 508.909 469.388 510.32 472.982C511.822 476.81 514.885 481.023 520.643 483.719C531.473 488.789 539.502 485.044 542.001 482.982C542.457 482.606 542.759 482.216 542.831 482.124L542.838 482.115C542.96 481.958 543.064 481.809 543.139 481.699C543.291 481.475 543.45 481.222 543.601 480.976C543.909 480.473 544.297 479.807 544.741 479.029C545.635 477.462 546.834 475.301 548.224 472.763C551.007 467.682 554.603 461.008 558.156 454.377C561.71 447.743 565.228 441.14 567.856 436.196C569.17 433.725 570.263 431.667 571.026 430.227C571.408 429.507 571.708 428.942 571.912 428.556L572.146 428.116L572.168 428.074L572.269 427.904C572.377 427.723 572.538 427.455 572.747 427.108C573.165 426.416 573.774 425.414 574.532 424.185C576.049 421.726 578.16 418.367 580.535 414.766C585.409 407.376 591 399.581 594.829 396.035C598.559 392.58 604.556 389.46 612.051 385.594C619.234 381.89 627.489 377.632 634.437 372.056C647.839 361.301 653.66 354.304 659.645 343.053C665.627 331.809 667.534 324.056 668.416 311.343C669.392 297.281 659.945 287.573 657.555 285.117C657.469 285.028 657.392 284.948 657.324 284.878C656.384 283.902 654.538 282.587 652.857 281.437C650.976 280.15 648.662 278.649 646.339 277.195C644.015 275.741 641.642 274.309 639.638 273.164C637.815 272.122 635.841 271.049 634.561 270.607C630.552 269.223 619.569 267.576 607.576 272.659C596.584 277.317 590.951 285.34 585.61 292.946C584.985 293.836 584.364 294.721 583.739 295.593C577.274 304.618 569.931 318.043 567.275 330.057C566.549 333.339 566.308 337.271 566.224 341.249C566.165 344.014 566.181 347.011 566.197 350.008C566.204 351.336 566.211 352.665 566.212 353.972C566.216 362.876 565.895 370.938 563.919 376.384C561.781 382.276 557.028 390.777 552.604 398.071C550.428 401.657 548.394 404.853 546.903 407.152C546.158 408.301 545.55 409.224 545.13 409.857C544.92 410.174 544.757 410.418 544.647 410.582L544.524 410.766L544.497 410.806L544.496 410.808L544.494 410.811L544.491 410.815L544.487 410.821L544.485 410.823L544.485 410.824L544.472 410.842L544.398 410.951L544.11 411.373C543.858 411.743 543.489 412.286 543.018 412.977C542.078 414.359 540.734 416.334 539.12 418.709C535.894 423.457 531.588 429.803 527.275 436.19C522.963 442.574 518.637 449.008 515.372 453.93C513.741 456.387 512.363 458.486 511.38 460.019C510.892 460.781 510.481 461.434 510.18 461.933C510.033 462.177 509.885 462.429 509.76 462.661C509.699 462.773 509.615 462.933 509.531 463.114L509.528 463.122C509.49 463.201 509.24 463.732 509.117 464.412Z" stroke="white" stroke-width="10"/>
</g>
<g filter="url(#filter1_d_1_92)">
<path d="M223.844 422.227L218.089 451.57C214.741 468.64 229.417 483.826 246.592 481.064L276.115 476.316C296.062 473.107 304.162 448.788 290.122 434.26L266.354 409.665C252.314 395.137 227.732 402.4 223.844 422.227Z" fill="url(#paint1_linear_1_92)" stroke="white" stroke-width="10"/>
<path d="M519.329 431.227L525.084 460.57C528.432 477.64 513.756 492.826 496.581 490.064L467.058 485.316C447.111 482.107 439.011 457.788 453.051 443.26L476.819 418.665C490.859 404.137 515.441 411.4 519.329 431.227Z" fill="url(#paint2_linear_1_92)" stroke="white" stroke-width="10"/>
<path d="M212.363 168H208.783L207.63 171.39L212.363 173C207.63 171.39 207.629 171.392 207.628 171.394L207.627 171.399L207.623 171.411L207.612 171.442C207.604 171.467 207.593 171.498 207.581 171.537C207.556 171.615 207.521 171.721 207.479 171.858C207.394 172.13 207.276 172.521 207.129 173.036C206.836 174.065 206.43 175.591 205.946 177.657C204.979 181.79 203.704 188.087 202.421 196.905C199.855 214.54 197.251 242.273 197 282.969C196.559 354.422 203.859 385.926 205.788 392.982C206.099 394.119 206.477 395.188 206.965 396.281C212.133 407.867 251.191 485 371.5 485C484.571 485 525.903 416.841 534.733 399.037C535.999 396.485 537.324 393.668 538.293 390.62C541.393 380.868 547.139 353.2 545.999 282.919C545.247 236.533 542.65 208.797 540.205 192.568C538.982 184.449 537.792 179.168 536.873 175.847C536.413 174.184 536.019 173.001 535.717 172.191C535.567 171.785 535.438 171.47 535.336 171.234C535.285 171.116 535.24 171.017 535.202 170.936C535.183 170.895 535.166 170.859 535.151 170.827L535.128 170.782L535.118 170.762L535.114 170.752C535.111 170.748 535.109 170.743 530.647 173L535.109 170.743L533.721 168H530.647H212.363Z" fill="url(#paint3_radial_1_92)" stroke="white" stroke-width="10"/>
<path d="M371.5 247C416.103 247 456.727 238.623 486.388 224.862C515.633 211.294 536 191.547 536 168C536 157.488 534.918 146.971 530.708 137.215C526.448 127.342 519.136 118.595 507.282 111.4C483.947 97.2362 442.837 89 371.5 89C300.163 89 259.053 97.2362 235.718 111.4C223.864 118.595 216.552 127.342 212.292 137.215C208.082 146.971 207 157.488 207 168C207 191.547 227.367 211.294 256.612 224.862C286.273 238.623 326.897 247 371.5 247Z" fill="url(#paint4_linear_1_92)" stroke="white" stroke-width="10"/>
<path d="M371.5 225C413.928 225 452.585 216.611 480.821 202.819C508.724 189.189 528 169.41 528 146C528 122.59 508.724 102.811 480.821 89.1814C452.585 75.3894 413.928 67 371.5 67C329.072 67 290.415 75.3894 262.179 89.1814C234.276 102.811 215 122.59 215 146C215 169.41 234.276 189.189 262.179 202.819C290.415 216.611 329.072 225 371.5 225Z" fill="url(#paint5_radial_1_92)" stroke="white" stroke-width="10"/>
<path d="M330.47 109.915C330.49 109.743 330.504 109.59 330.513 109.457C333.707 85.8646 351.111 68.8421 371 68.8421C390.922 68.8421 408.35 85.921 411.503 109.574C411.507 109.613 411.512 109.655 411.518 109.699C411.536 109.846 411.562 110.025 411.6 110.231C411.676 110.642 411.8 111.167 412.003 111.77C412.409 112.975 413.144 114.517 414.464 116.033C417.242 119.223 421.881 121.5 429 121.5C436.129 121.5 440.798 119.223 443.655 116.162C445.022 114.698 445.828 113.205 446.299 112.029C446.534 111.441 446.687 110.927 446.787 110.524C446.837 110.322 446.874 110.147 446.901 110.002C446.914 109.929 446.926 109.864 446.935 109.807C446.939 109.779 446.943 109.752 446.947 109.728L446.952 109.693L446.954 109.676L446.955 109.669C446.956 109.665 446.956 109.661 442 109L446.956 109.661L447 109.332V109C447 70.5009 419.905 38 385 38H358C323.125 38 296.046 70.4454 296 108.901C295.999 108.936 295.998 108.972 295.998 109.01C295.995 109.163 295.997 109.35 296.008 109.566C296.029 109.995 296.085 110.55 296.218 111.189C296.484 112.47 297.069 114.139 298.33 115.787C301.001 119.28 305.729 121.5 313 121.5C320.295 121.5 325.029 119.274 327.8 115.955C329.119 114.377 329.801 112.769 330.15 111.513C330.325 110.886 330.419 110.34 330.47 109.915Z" fill="url(#paint6_radial_1_92)" stroke="white" stroke-width="10"/>
<path d="M245.798 476.127C232.058 478.337 220.317 466.188 222.996 452.532L228.75 423.189C231.861 407.328 251.526 401.517 262.758 413.14L286.526 437.734C297.758 449.357 291.279 468.812 275.321 471.379L245.798 476.127Z" fill="url(#paint7_linear_1_92)"/>
<path d="M497.375 485.127C511.115 487.337 522.856 475.188 520.177 461.532L514.423 432.189C511.312 416.328 491.647 410.517 480.415 422.14L456.647 446.734C445.415 458.357 451.894 477.812 467.852 480.379L497.375 485.127Z" fill="url(#paint8_linear_1_92)"/>
<path d="M212.363 173H530.647C530.647 173 539.5 190.5 541 283C542.137 353.101 536.382 380.127 533.528 389.105C532.68 391.773 531.497 394.308 530.254 396.816C521.931 413.596 482.017 480 371.5 480C253.947 480 216.272 404.872 211.531 394.244C211.151 393.392 210.857 392.564 210.611 391.664C208.831 385.151 201.561 354.12 202 283C202.5 202 212.363 173 212.363 173Z" fill="url(#paint9_radial_1_92)"/>
<path d="M540.842 274.732C540.902 277.419 540.954 280.175 541 283C542.137 353.101 536.382 380.127 533.528 389.105C532.68 391.773 531.497 394.308 530.254 396.816C521.931 413.596 482.017 480 371.5 480C253.947 480 216.272 404.872 211.531 394.244C211.151 393.392 210.857 392.564 210.611 391.664C208.831 385.151 201.561 354.12 202 283C202.021 279.649 202.057 276.387 202.109 273.212C208.423 289.905 244.186 366 371.5 366C495.289 366 532.956 294.061 540.842 274.732Z" fill="url(#paint10_radial_1_92)"/>
<path d="M531 168C531 208.869 459.589 242 371.5 242C283.411 242 212 208.869 212 168C212 127.131 229 94 371.5 94C514 94.0001 531 127.131 531 168Z" fill="url(#paint11_linear_1_92)"/>
<ellipse cx="371.5" cy="146" rx="151.5" ry="74" fill="url(#paint12_radial_1_92)"/>
<path d="M358 43C326.52 43 301 72.5492 301 109C301 109 300.471 116.5 313 116.5C325.529 116.5 325.529 109 325.529 109C328.901 83.4303 347.975 63.8421 371 63.8421C394.025 63.8421 413.099 83.4303 416.471 109C416.471 109 417 116.5 429 116.5C441 116.5 442 109 442 109C442 72.5492 416.48 43 385 43H358Z" fill="url(#paint13_radial_1_92)"/>
<path d="M336.814 209.64C337.494 204.689 341.724 201 346.721 201H397.946C402.871 201 407.062 204.585 407.826 209.45L409.944 222.954C410.303 225.247 409.821 227.615 408.004 229.058C403.953 232.274 394.108 237.34 372.5 236.982C351.294 236.631 341.418 232.002 337.228 229.014C335.268 227.616 334.68 225.187 335.008 222.801L336.814 209.64Z" fill="#F0B176"/>
<path d="M338.773 196.586C339.477 191.659 343.696 188 348.673 188H396.327C401.304 188 405.523 191.659 406.227 196.586L409.515 219.603C409.829 221.805 409.365 224.071 407.616 225.445C403.709 228.514 394.099 233.343 372.5 233C351.46 232.666 341.797 228.317 337.699 225.465C335.749 224.108 335.184 221.709 335.52 219.357L338.773 196.586Z" fill="url(#paint14_linear_1_92)"/>
<path d="M326 424.405C326 416.277 336.011 410.281 343.86 412.393C351.122 414.347 360.642 415.967 372.5 416.134C383.958 416.296 393.233 414.867 400.396 412.983C408.428 410.871 419 417.048 419 425.353V441.963C419 444.538 417.991 447.01 415.828 448.408C410.389 451.921 397.384 458 372.5 458C347.616 458 334.611 451.921 329.172 448.408C327.009 447.01 326 444.538 326 441.963V424.405Z" fill="url(#paint15_linear_1_92)"/>
<path d="M326 437.95C326 430.572 334.028 425.037 341.256 426.517C348.791 428.06 359.167 429.435 372.5 429.563C385.543 429.688 395.757 428.413 403.248 426.876C410.613 425.365 419 431.017 419 438.535V444.669C419 447.908 417.384 450.904 414.37 452.09C408.224 454.508 395.386 458 372.5 458C349.614 458 336.776 454.508 330.63 452.09C327.616 450.904 326 447.908 326 444.669V437.95Z" fill="url(#paint16_radial_1_92)"/>
<path d="M316 419.125C316 430.24 310.851 431.775 304.5 431.775C298.149 431.775 293 430.24 293 419.125C293 408.01 298.149 399 304.5 399C310.851 399 316 408.01 316 419.125Z" fill="url(#paint17_linear_1_92)"/>
<path d="M298.017 408.306C298.017 408.306 297.517 402.806 302.017 401.306C306.517 399.806 308.017 404.306 308.017 404.306C308.017 404.306 308.517 406.806 307.017 409.306C305.517 411.806 303.517 412.306 301.017 412.806C298.517 413.306 298.017 408.306 298.017 408.306Z" fill="url(#paint18_radial_1_92)"/>
<g filter="url(#filter2_d_1_92)">
<ellipse cx="304.5" cy="425" rx="8.5" ry="5" fill="#D96B6B"/>
</g>
<path d="M452 419.125C452 430.24 446.851 431.775 440.5 431.775C434.149 431.775 429 430.24 429 419.125C429 408.01 434.149 399 440.5 399C446.851 399 452 408.01 452 419.125Z" fill="url(#paint19_linear_1_92)"/>
<path d="M434.017 408.306C434.017 408.306 433.517 402.806 438.017 401.306C442.517 399.806 444.017 404.306 444.017 404.306C444.017 404.306 444.517 406.806 443.017 409.306C441.517 411.806 439.517 412.306 437.017 412.806C434.517 413.306 434.017 408.306 434.017 408.306Z" fill="url(#paint20_radial_1_92)"/>
<g filter="url(#filter3_d_1_92)">
<ellipse cx="440.5" cy="425" rx="8.5" ry="5" fill="#D96B6B"/>
</g>
</g>
<g filter="url(#filter4_d_1_92)">
<path d="M613.5 116.5L630.5 80L645 116.5L678.5 128.5L645 149L630.5 188L613.5 149L583 133L613.5 116.5Z" fill="url(#paint21_radial_1_92)"/>
<path d="M613.5 116.5L630.5 80L645 116.5L678.5 128.5L645 149L630.5 188L613.5 149L583 133L613.5 116.5Z" stroke="white" stroke-width="10" stroke-linejoin="round"/>
</g>
<g filter="url(#filter5_d_1_92)">
<path d="M45.5 247.5L62.5 211L77 247.5L110.5 259.5L77 280L62.5 319L45.5 280L15 264L45.5 247.5Z" fill="url(#paint22_radial_1_92)"/>
<path d="M45.5 247.5L62.5 211L77 247.5L110.5 259.5L77 280L62.5 319L45.5 280L15 264L45.5 247.5Z" stroke="white" stroke-width="10" stroke-linejoin="round"/>
</g>
<g filter="url(#filter6_d_1_92)">
<path d="M684.356 41.7539L696.817 15L707.445 41.7539L732 50.5497L707.445 65.5759L696.817 94.1623L684.356 65.5759L662 53.8482L684.356 41.7539Z" fill="url(#paint23_radial_1_92)"/>
<path d="M684.356 41.7539L696.817 15L707.445 41.7539L732 50.5497L707.445 65.5759L696.817 94.1623L684.356 65.5759L662 53.8482L684.356 41.7539Z" stroke="white" stroke-width="10" stroke-linejoin="round"/>
</g>
<g filter="url(#filter7_d_1_92)">
<path d="M111.356 337.754L123.817 311L134.445 337.754L159 346.55L134.445 361.576L123.817 390.162L111.356 361.576L89 349.848L111.356 337.754Z" fill="url(#paint24_radial_1_92)"/>
<path d="M111.356 337.754L123.817 311L134.445 337.754L159 346.55L134.445 361.576L123.817 390.162L111.356 361.576L89 349.848L111.356 337.754Z" stroke="white" stroke-width="10" stroke-linejoin="round"/>
</g>
<defs>
<filter id="filter0_d_1_92" x="493.982" y="254.206" width="209.505" height="267.055" filterUnits="userSpaceOnUse" color-interpolation-filters="sRGB">
<feFlood flood-opacity="0" result="BackgroundImageFix"/>
<feColorMatrix in="SourceAlpha" type="matrix" values="0 0 0 0 0 0 0 0 0 0 0 0 0 0 0 0 0 0 127 0" result="hardAlpha"/>
<feOffset dx="10" dy="10"/>
<feGaussianBlur stdDeviation="10"/>
<feComposite in2="hardAlpha" operator="out"/>
<feColorMatrix type="matrix" values="0 0 0 0 0 0 0 0 0 0 0 0 0 0 0 0 0 0 0.25 0"/>
<feBlend mode="normal" in2="BackgroundImageFix" result="effect1_dropShadow_1_92"/>
<feBlend mode="normal" in="SourceGraphic" in2="effect1_dropShadow_1_92" result="shape"/>
</filter>
<filter id="filter1_d_1_92" x="181.981" y="23" width="399.166" height="502.392" filterUnits="userSpaceOnUse" color-interpolation-filters="sRGB">
<feFlood flood-opacity="0" result="BackgroundImageFix"/>
<feColorMatrix in="SourceAlpha" type="matrix" values="0 0 0 0 0 0 0 0 0 0 0 0 0 0 0 0 0 0 127 0" result="hardAlpha"/>
<feOffset dx="10" dy="10"/>
<feGaussianBlur stdDeviation="10"/>
<feComposite in2="hardAlpha" operator="out"/>
<feColorMatrix type="matrix" values="0 0 0 0 0 0 0 0 0 0 0 0 0 0 0 0 0 0 0.25 0"/>
<feBlend mode="normal" in2="BackgroundImageFix" result="effect1_dropShadow_1_92"/>
<feBlend mode="normal" in="SourceGraphic" in2="effect1_dropShadow_1_92" result="shape"/>
</filter>
<filter id="filter2_d_1_92" x="286" y="410" width="37" height="30" filterUnits="userSpaceOnUse" color-interpolation-filters="sRGB">
<feFlood flood-opacity="0" result="BackgroundImageFix"/>
<feColorMatrix in="SourceAlpha" type="matrix" values="0 0 0 0 0 0 0 0 0 0 0 0 0 0 0 0 0 0 127 0" result="hardAlpha"/>
<feOffset/>
<feGaussianBlur stdDeviation="5"/>
<feComposite in2="hardAlpha" operator="out"/>
<feColorMatrix type="matrix" values="0 0 0 0 0.85098 0 0 0 0 0.419608 0 0 0 0 0.419608 0 0 0 1 0"/>
<feBlend mode="normal" in2="BackgroundImageFix" result="effect1_dropShadow_1_92"/>
<feBlend mode="normal" in="SourceGraphic" in2="effect1_dropShadow_1_92" result="shape"/>
</filter>
<filter id="filter3_d_1_92" x="422" y="410" width="37" height="30" filterUnits="userSpaceOnUse" color-interpolation-filters="sRGB">
<feFlood flood-opacity="0" result="BackgroundImageFix"/>
<feColorMatrix in="SourceAlpha" type="matrix" values="0 0 0 0 0 0 0 0 0 0 0 0 0 0 0 0 0 0 127 0" result="hardAlpha"/>
<feOffset/>
<feGaussianBlur stdDeviation="5"/>
<feComposite in2="hardAlpha" operator="out"/>
<feColorMatrix type="matrix" values="0 0 0 0 0.85098 0 0 0 0 0.419608 0 0 0 0 0.419608 0 0 0 1 0"/>
<feBlend mode="normal" in2="BackgroundImageFix" result="effect1_dropShadow_1_92"/>
<feBlend mode="normal" in="SourceGraphic" in2="effect1_dropShadow_1_92" result="shape"/>
</filter>
<filter id="filter4_d_1_92" x="568" y="65" width="145.5" height="158" filterUnits="userSpaceOnUse" color-interpolation-filters="sRGB">
<feFlood flood-opacity="0" result="BackgroundImageFix"/>
<feColorMatrix in="SourceAlpha" type="matrix" values="0 0 0 0 0 0 0 0 0 0 0 0 0 0 0 0 0 0 127 0" result="hardAlpha"/>
<feOffset dx="10" dy="10"/>
<feGaussianBlur stdDeviation="10"/>
<feComposite in2="hardAlpha" operator="out"/>
<feColorMatrix type="matrix" values="0 0 0 0 0 0 0 0 0 0 0 0 0 0 0 0 0 0 0.25 0"/>
<feBlend mode="normal" in2="BackgroundImageFix" result="effect1_dropShadow_1_92"/>
<feBlend mode="normal" in="SourceGraphic" in2="effect1_dropShadow_1_92" result="shape"/>
</filter>
<filter id="filter5_d_1_92" x="0" y="196" width="145.5" height="158" filterUnits="userSpaceOnUse" color-interpolation-filters="sRGB">
<feFlood flood-opacity="0" result="BackgroundImageFix"/>
<feColorMatrix in="SourceAlpha" type="matrix" values="0 0 0 0 0 0 0 0 0 0 0 0 0 0 0 0 0 0 127 0" result="hardAlpha"/>
<feOffset dx="10" dy="10"/>
<feGaussianBlur stdDeviation="10"/>
<feComposite in2="hardAlpha" operator="out"/>
<feColorMatrix type="matrix" values="0 0 0 0 0 0 0 0 0 0 0 0 0 0 0 0 0 0 0.25 0"/>
<feBlend mode="normal" in2="BackgroundImageFix" result="effect1_dropShadow_1_92"/>
<feBlend mode="normal" in="SourceGraphic" in2="effect1_dropShadow_1_92" result="shape"/>
</filter>
<filter id="filter6_d_1_92" x="647" y="0" width="120" height="129.162" filterUnits="userSpaceOnUse" color-interpolation-filters="sRGB">
<feFlood flood-opacity="0" result="BackgroundImageFix"/>
<feColorMatrix in="SourceAlpha" type="matrix" values="0 0 0 0 0 0 0 0 0 0 0 0 0 0 0 0 0 0 127 0" result="hardAlpha"/>
<feOffset dx="10" dy="10"/>
<feGaussianBlur stdDeviation="10"/>
<feComposite in2="hardAlpha" operator="out"/>
<feColorMatrix type="matrix" values="0 0 0 0 0 0 0 0 0 0 0 0 0 0 0 0 0 0 0.25 0"/>
<feBlend mode="normal" in2="BackgroundImageFix" result="effect1_dropShadow_1_92"/>
<feBlend mode="normal" in="SourceGraphic" in2="effect1_dropShadow_1_92" result="shape"/>
</filter>
<filter id="filter7_d_1_92" x="74" y="296" width="120" height="129.162" filterUnits="userSpaceOnUse" color-interpolation-filters="sRGB">
<feFlood flood-opacity="0" result="BackgroundImageFix"/>
<feColorMatrix in="SourceAlpha" type="matrix" values="0 0 0 0 0 0 0 0 0 0 0 0 0 0 0 0 0 0 127 0" result="hardAlpha"/>
<feOffset dx="10" dy="10"/>
<feGaussianBlur stdDeviation="10"/>
<feComposite in2="hardAlpha" operator="out"/>
<feColorMatrix type="matrix" values="0 0 0 0 0 0 0 0 0 0 0 0 0 0 0 0 0 0 0.25 0"/>
<feBlend mode="normal" in2="BackgroundImageFix" result="effect1_dropShadow_1_92"/>
<feBlend mode="normal" in="SourceGraphic" in2="effect1_dropShadow_1_92" result="shape"/>
</filter>
<linearGradient id="paint0_linear_1_92" x1="644.945" y1="282.221" x2="521.907" y2="478.812" gradientUnits="userSpaceOnUse">
<stop stop-color="#E4D1D1"/>
<stop offset="1" stop-color="#B09A9A"/>
</linearGradient>
<linearGradient id="paint1_linear_1_92" x1="217.475" y1="480.683" x2="293.698" y2="407.022" gradientUnits="userSpaceOnUse">
<stop stop-color="#D96B6B"/>
<stop offset="1" stop-color="#AA3E3E"/>
</linearGradient>
<linearGradient id="paint2_linear_1_92" x1="525.698" y1="489.683" x2="449.475" y2="416.022" gradientUnits="userSpaceOnUse">
<stop stop-color="#E67A7A"/>
<stop offset="1" stop-color="#9E3B3B"/>
</linearGradient>
<radialGradient id="paint3_radial_1_92" cx="0" cy="0" r="1" gradientUnits="userSpaceOnUse" gradientTransform="translate(261 292.5) rotate(1.69053) scale(288.125 318.314)">
<stop stop-color="#F8E5B6"/>
<stop offset="1" stop-color="#F0B176"/>
</radialGradient>
<linearGradient id="paint4_linear_1_92" x1="216" y1="161" x2="538.5" y2="168" gradientUnits="userSpaceOnUse">
<stop stop-color="#D96B6B"/>
<stop offset="1" stop-color="#C66A6A"/>
</linearGradient>
<radialGradient id="paint5_radial_1_92" cx="0" cy="0" r="1" gradientUnits="userSpaceOnUse" gradientTransform="translate(371 108) rotate(89.7442) scale(112.001 229.3)">
<stop stop-color="#F8AAAA"/>
<stop offset="1" stop-color="#F18585"/>
</radialGradient>
<radialGradient id="paint6_radial_1_92" cx="0" cy="0" r="1" gradientUnits="userSpaceOnUse" gradientTransform="translate(371.498 79.75) rotate(90) scale(36.75 70.5016)">
<stop stop-color="#9B5E5E"/>
<stop offset="1" stop-color="#EA7B7B"/>
</radialGradient>
<linearGradient id="paint7_linear_1_92" x1="217.475" y1="480.683" x2="293.698" y2="407.022" gradientUnits="userSpaceOnUse">
<stop stop-color="#D96B6B"/>
<stop offset="1" stop-color="#AA3E3E"/>
</linearGradient>
<linearGradient id="paint8_linear_1_92" x1="525.698" y1="489.683" x2="449.475" y2="416.022" gradientUnits="userSpaceOnUse">
<stop stop-color="#E67A7A"/>
<stop offset="1" stop-color="#9E3B3B"/>
</linearGradient>
<radialGradient id="paint9_radial_1_92" cx="0" cy="0" r="1" gradientUnits="userSpaceOnUse" gradientTransform="translate(261 292.5) rotate(1.69053) scale(288.125 318.314)">
<stop stop-color="#F8E5B6"/>
<stop offset="1" stop-color="#F0B176"/>
</radialGradient>
<radialGradient id="paint10_radial_1_92" cx="0" cy="0" r="1" gradientUnits="userSpaceOnUse" gradientTransform="translate(275.5 348.5) rotate(10.6673) scale(332.242 544.929)">
<stop offset="0.3125" stop-color="#F29292"/>
<stop offset="1" stop-color="#B45454"/>
</radialGradient>
<linearGradient id="paint11_linear_1_92" x1="216" y1="161" x2="538.5" y2="168" gradientUnits="userSpaceOnUse">
<stop stop-color="#D96B6B"/>
<stop offset="1" stop-color="#C66A6A"/>
</linearGradient>
<radialGradient id="paint12_radial_1_92" cx="0" cy="0" r="1" gradientUnits="userSpaceOnUse" gradientTransform="translate(371 108) rotate(89.7442) scale(112.001 229.3)">
<stop stop-color="#F8AAAA"/>
<stop offset="1" stop-color="#F18585"/>
</radialGradient>
<radialGradient id="paint13_radial_1_92" cx="0" cy="0" r="1" gradientUnits="userSpaceOnUse" gradientTransform="translate(371.498 79.75) rotate(90) scale(36.75 70.5016)">
<stop stop-color="#9B5E5E"/>
<stop offset="1" stop-color="#EA7B7B"/>
</radialGradient>
<linearGradient id="paint14_linear_1_92" x1="372.5" y1="188" x2="372.5" y2="233.017" gradientUnits="userSpaceOnUse">
<stop stop-color="#F8E5B6"/>
<stop offset="1" stop-color="#F3C893"/>
</linearGradient>
<linearGradient id="paint15_linear_1_92" x1="372.5" y1="405" x2="372.5" y2="458" gradientUnits="userSpaceOnUse">
<stop stop-color="#C65454"/>
<stop offset="1" stop-color="#D96B6B"/>
</linearGradient>
<radialGradient id="paint16_radial_1_92" cx="0" cy="0" r="1" gradientUnits="userSpaceOnUse" gradientTransform="translate(372 453.5) rotate(-90) scale(31.5 81.375)">
<stop stop-color="#B54D4D"/>
<stop offset="1" stop-color="#933232"/>
</radialGradient>
<linearGradient id="paint17_linear_1_92" x1="304.5" y1="399" x2="304.5" y2="431.775" gradientUnits="userSpaceOnUse">
<stop offset="0.00520833" stop-color="#4B1B1B"/>
<stop offset="1" stop-color="#B54D4D"/>
</linearGradient>
<radialGradient id="paint18_radial_1_92" cx="0" cy="0" r="1" gradientUnits="userSpaceOnUse" gradientTransform="translate(303.048 406.921) rotate(90) scale(5.92064 5.04826)">
<stop stop-color="#FFD0D0"/>
<stop offset="1" stop-color="#E79D9D"/>
</radialGradient>
<linearGradient id="paint19_linear_1_92" x1="440.5" y1="399" x2="440.5" y2="431.775" gradientUnits="userSpaceOnUse">
<stop offset="0.00520833" stop-color="#4B1B1B"/>
<stop offset="1" stop-color="#B54D4D"/>
</linearGradient>
<radialGradient id="paint20_radial_1_92" cx="0" cy="0" r="1" gradientUnits="userSpaceOnUse" gradientTransform="translate(439.048 406.921) rotate(90) scale(5.92064 5.04826)">
<stop stop-color="#FFD0D0"/>
<stop offset="1" stop-color="#E79D9D"/>
</radialGradient>
<radialGradient id="paint21_radial_1_92" cx="0" cy="0" r="1" gradientUnits="userSpaceOnUse" gradientTransform="translate(618 119.5) rotate(76.4641) scale(55.5428 49.1142)">
<stop stop-color="#F6DCAA"/>
<stop offset="1" stop-color="#F1BB82"/>
</radialGradient>
<radialGradient id="paint22_radial_1_92" cx="0" cy="0" r="1" gradientUnits="userSpaceOnUse" gradientTransform="translate(50 250.5) rotate(76.4641) scale(55.5428 49.1142)">
<stop stop-color="#F6DCAA"/>
<stop offset="1" stop-color="#F1BB82"/>
</radialGradient>
<radialGradient id="paint23_radial_1_92" cx="0" cy="0" r="1" gradientUnits="userSpaceOnUse" gradientTransform="translate(687.654 43.9529) rotate(76.4641) scale(40.712 35.9999)">
<stop stop-color="#F6DCAA"/>
<stop offset="1" stop-color="#F1BB82"/>
</radialGradient>
<radialGradient id="paint24_radial_1_92" cx="0" cy="0" r="1" gradientUnits="userSpaceOnUse" gradientTransform="translate(114.654 339.953) rotate(76.4641) scale(40.712 35.9999)">
<stop stop-color="#F6DCAA"/>
<stop offset="1" stop-color="#F1BB82"/>
</radialGradient>
</defs>
</svg>
